<?xml version="1.0" encoding="utf-8"?>
<!-- Generator: Adobe Illustrator 19.1.0, SVG Export Plug-In . SVG Version: 6.00 Build 0)  -->
<svg version="1.1" id="Layer_1" xmlns="http://www.w3.org/2000/svg" xmlns:xlink="http://www.w3.org/1999/xlink" x="0px" y="0px"
	 viewBox="62 112.7 454 51" style="enable-background:new 62 112.7 454 51;" xml:space="preserve">
<style type="text/css">
	.st0{fill:#A32F38;}
</style>
<g>
	<g>
		<g>
			<g>
				<path class="st0" d="M191.4,130.9c-0.5-0.3-1-0.5-1.5-0.8c-0.2-0.1-0.4-0.3-0.7-0.4c-0.7-0.4-1.5-0.8-2.2-1.2
					c-0.6-0.3-1.2-0.6-1.9-0.8c-0.2-0.1-0.3-0.2-0.4-0.4c-0.2-0.3-0.2-0.7-0.1-1c0-0.2,0.2-0.3,0.4-0.3c0.3,0,0.6,0,0.8-0.1
					c0.1-0.1,0.2-0.1,0.3-0.2c0.3-0.2,0.3-0.3,0-0.6c-0.2-0.2-0.2-0.4,0-0.5c0.1-0.1,0.3-0.1,0.5,0.1s0.2,0.2,0.5,0
					c0.1-0.1,0.2-0.2,0.3-0.2c0.5-0.1,1.1-0.2,1.6,0c0.2,0.1,0.4,0.2,0.5,0.3c0.4,0.4,0.9,0.8,1.3,1.3c0.5,0.7,1.1,1.4,1.3,2.3
					c0.1,0.5,0.4,1,0.6,1.6c0.2,0.4,0.1,0.7,0.1,1.1c0,0.3-0.5,0.4-0.8,0.2c-0.1,0-0.2-0.1-0.3-0.2c0.1,0.2,0.3,0.4,0.6,0.5
					c0.6,0.2,0.7,0.6,0.9,1.1c0,0.2,0,0.3-0.1,0.5c-0.2,0.2-0.4,0.3-0.6,0.5c-0.2,0.1-0.4,0.3-0.5,0.5c-0.1,0.2-0.2,0.3-0.4,0.5
					c-0.2,0.2-0.4,0.2-0.7,0.2c-0.2,0-0.3-0.2-0.3-0.4s0-0.3,0-0.5c0-0.5,0.4-0.8,0.9-0.8c0.3,0,0.3,0,0.5-0.2
					c-0.3-0.4-0.5-0.7-1-0.9s-0.9-0.4-1.4-0.3c-0.1,0-0.3,0-0.4-0.1c-0.2-0.1-0.4-0.2-0.5-0.5c0-0.2-0.1-0.2-0.3-0.3
					c-0.1,0-0.3-0.1-0.4-0.1c-0.2-0.1-0.3-0.2-0.3-0.4c0-0.1-0.1-0.1-0.1-0.2h-0.1c0,0.4,0,0.7,0,1.1c0,0.2,0.2,0.3,0.4,0.5
					c0.3,0.2,0.3,0.3,0.1,0.5s-0.5,0.5-0.9,0.5c-0.2,0-0.3,0.2-0.4,0.3c-0.1,0.1,0,0.2,0.1,0.3c0.6,0.2,0.7,0.7,0.9,1.2
					c0.1,0.3,0.3,0.4,0.5,0.4c0.4,0,0.8,0,1.2-0.1c0.5-0.1,0.7,0.1,0.7,0.6c0,0.3,0,0.6-0.3,0.8c-0.2,0.1-0.1,0.3,0,0.5
					c0.1,0.1,0.2,0.3,0.2,0.4c0.1,0.2,0,0.4-0.2,0.6c-0.2,0.1-0.4,0.1-0.6,0c-0.1,0-0.2-0.1-0.2-0.2c-0.2-0.2-0.3-0.2-0.5,0
					c-0.1,0.1-0.2,0.2-0.3,0.3c-0.2,0.2-0.4,0.3-0.7,0.3c-0.1,0-0.2,0-0.3,0c-0.3-0.1-0.5,0-0.8,0.2c-0.3,0.2-0.9,0.2-1.2-0.1
					c-0.1-0.1-0.1-0.1-0.2-0.2c-0.4-0.6-1-1.1-1.6-1.6c0,0-0.1,0-0.1-0.1c-0.3-0.5-0.8-0.7-1.2-1l0,0c-0.4-0.4-0.9-0.3-1.3-0.3
					c-0.2,0-0.3,0.1-0.3,0.3c-0.1,0.5-0.3,0.6-0.8,0.5c-0.6-0.1-1-0.6-1.3-1.1c-0.2-0.3-0.4-0.6-0.6-0.8c-0.3-0.3-0.3-0.4,0-0.6
					c0.5-0.4,1-0.8,1.4-1.3c0.1-0.1,0.2-0.2,0.3-0.2c0.4-0.1,0.9-0.2,1.2-0.4c0.6-0.3,1.2-0.6,1.6-1.1c0.5-0.5,1-1,1.5-1.5
					c0.1-0.1,0.2-0.3,0.3-0.5c0.1-0.3,0.2-0.4,0.4-0.4c0.4,0,0.7,0,1.1,0.2c0.5,0.3,1.1,0.5,1.7,0.8c0.4,0.2,0.7,0.4,1.1,0.5
					c0.7,0.3,1.3,0.6,2,1C190.7,130.7,191.1,130.8,191.4,130.9L191.4,130.9z M184.8,132.5c0.1,0,0.1,0,0.2,0c0.3-0.2,0.7-0.3,1-0.3
					c0.2,0,0.2-0.2,0.2-0.4c0-0.3,0-0.5,0.1-0.8c0-0.2,0.2-0.3,0.2-0.5c0.2-0.3,0.1-0.7-0.1-0.8c-0.2-0.1-0.4-0.3-0.7-0.4
					c-0.4-0.2-0.6,0-0.6,0.4c0,0.3,0,0.6,0,0.9c0,0.3,0,0.6-0.2,0.8C184.7,131.7,184.7,132.1,184.8,132.5z M185.3,133.7
					c0.1,0,0.4,0.1,0.4-0.1c0-0.3-0.2-0.2-0.4-0.2c-0.1,0-0.3-0.1-0.4,0.1C184.8,133.7,184.9,133.7,185.3,133.7z"/>
			</g>
			<g>
				<g id="XMLID_1_">
					<g>
						<path class="st0" d="M177.2,134.3c-0.2,0-0.3-0.1-0.3-0.3c0-0.2,0.2-0.3,0.3-0.3c0.2,0,0.3,0.2,0.3,0.4
							C177.5,134.2,177.4,134.3,177.2,134.3z"/>
						<path class="st0" d="M175,132.5c0.4,0.1,0.7,0.7,0.6,1.1c0,0.2-0.1,0.2-0.3,0.3c-0.2,0-0.4,0-0.6,0.1c-0.3,0-0.5-0.1-0.7-0.3
							c-0.1-0.1-0.2-0.1-0.4-0.2c-0.1-0.1-0.2-0.2-0.2-0.3c0-0.1,0.1-0.3,0.2-0.3c0.4-0.1,0.8-0.2,1.2-0.4
							C174.9,132.5,175,132.5,175,132.5z"/>
						<path class="st0" d="M172.8,135.1c-0.8,0-1.7,0-2.5,0c-0.3,0-0.6,0-0.9,0c-0.4,0-0.5,0-0.5-0.4c0-0.1,0-0.1,0-0.3l0.1-0.4
							c0.1-0.1,0.2-0.3,0.2-0.4c0.1-0.3,0.2-0.5,0.4-0.7c0.3-0.3,0.6-0.6,0.8-1c0-0.1,0.1-0.1,0.1-0.2c0.2-0.3,0.4-0.7,0.9-0.7
							c0.2,0,0.4-0.2,0.6-0.2c0.1,0,0.2-0.1,0.3-0.1c0.3,0.1,0.6,0.3,0.9,0.5c0.1,0.1,0.1,0.3,0,0.4c-0.2,0.2-0.2,0.3-0.3,0.6
							c0,0.2-0.2,0.3-0.4,0.3c-0.1,0-0.3,0.1-0.3,0.2c-0.2,0.4-0.4,0.8-0.6,1.1c-0.1,0.2-0.1,0.3-0.2,0.6c0.3,0,0.5,0.1,0.7,0
							c0.1,0,0.2-0.1,0.3-0.2c0.1-0.1,0.3-0.2,0.5-0.2s0.5,0,0.7,0c0.1,0,0.2,0,0.2,0c0.2,0.1,0.3,0.2,0.3,0.3
							c0,0.2-0.1,0.4-0.3,0.4s-0.4,0.1-0.6,0.3C173.2,135.1,172.9,135.1,172.8,135.1z"/>
						<path class="st0" d="M170.3,131.3c0,0.1,0,0.3-0.1,0.4c0,0,0,0.1-0.1,0.1c-0.2,0.3-0.5,0.5-0.7,0.8c-0.1,0.1-0.3,0.1-0.4,0.1
							c-0.3,0-0.6,0-0.9,0V132c0.2,0,0.4-0.1,0.6-0.2c0.2-0.2,0.5-0.5,0.7-0.7c0.2-0.2,0.4-0.2,0.6-0.2
							C170.1,131,170.3,131.2,170.3,131.3z"/>
						<path class="st0" d="M168.2,133.3c0.4,0,0.5,0.1,0.6,0.5v0.1c0,0,0,0,0.1,0l-0.1,0.4c-0.2,0.4-0.5,0.5-0.9,0.4
							c-0.3,0-0.6,0-0.8,0s-0.4,0-0.5-0.2c-0.1-0.1-0.2-0.2-0.4-0.2c-0.3,0-0.5-0.1-0.7-0.3c-0.1-0.1-0.2-0.1-0.3-0.2
							c-0.2-0.2-0.3-0.6-0.1-0.9c0.2-0.2,0.6-0.2,0.8,0c0.2,0.1,0.3,0.3,0.5,0.5s0.3,0.2,0.5,0s0.4-0.3,0.7-0.2
							C167.8,133.3,168,133.3,168.2,133.3z"/>
						<path class="st0" d="M154.7,121.1c0.1,0,0.2,0,0.3,0s0.2,0.1,0.2,0.2c0,0.2-0.1,0.3-0.2,0.3c-0.2,0-0.5,0-0.8,0
							c-0.1,0-0.2-0.1-0.2-0.3c0-0.2,0.1-0.2,0.3-0.3C154.4,121.1,154.5,121.1,154.7,121.1z"/>
						<path class="st0" d="M151.3,124.9c0.4,0,0.7,0.2,0.9,0.5c0.1,0.2,0,0.3-0.2,0.4c-0.1,0-0.1,0-0.2,0c-0.4,0-0.7,0-1.1,0l0,0
							c-0.4,0-0.8,0-1.2,0c-0.2,0-0.3,0.1-0.3,0.3s0.1,0.3,0.3,0.3c0.1,0,0.3,0.1,0.4,0.1c0.6,0,1.2,0,1.8,0c0.5,0,1-0.1,1.4-0.3
							c0.8-0.4,1.7-0.7,2.4-1.3c0.1-0.1,0.3-0.2,0.5-0.3c0.2-0.1,0.4-0.3,0.6-0.5s0.3-0.4,0.5-0.6c0.1-0.1,0.1-0.3,0.1-0.4
							c0-0.5,0-1,0-1.6c0-0.3,0-0.6,0-0.9c0-0.3-0.1-0.4-0.4-0.4c-0.2,0-0.3,0.1-0.5,0.2c-0.2,0.1-0.4,0.2-0.7,0.2
							c-0.1,0-0.3,0-0.4,0c-0.3,0-0.5,0-0.7-0.2c-0.1-0.1-0.3-0.2-0.4-0.2c-1,0-2.1,0-3.1,0.2c-0.6,0.1-1.1,0.3-1.6,0.6
							c-0.1,0.1-0.3,0.2-0.5,0.3s-0.5,0.1-0.8,0.3c-0.6,0.3-1.3,0.5-1.6,1.2c0,0,0,0.1-0.1,0.1c-0.2,0.2-0.2,0.6,0,0.7
							c0.1,0.1,0.4,0.1,0.6-0.2c0.1-0.1,0.3-0.2,0.5-0.2c0.4,0,0.7,0,1.1,0c0.1,0,0.3,0,0.3,0.2c0,0.1,0,0.2-0.1,0.3
							c-0.2,0.2-0.4,0.3-0.6,0.3c-0.1,0-0.3,0-0.4,0.1c-0.3,0.1-0.3,0.3,0,0.5c0.1,0.1,0.2,0.1,0.4,0.1c0.1,0,0.3,0,0.5-0.1
							s0.4,0,0.6,0.1c0.1,0.1,0.2,0.2,0.4,0.2c0.1,0.1,0.3,0.2,0.5,0.2C150.2,124.9,150.8,124.9,151.3,124.9z M169.9,127.2
							c-0.2-0.2-0.4-0.3-0.7-0.2c-0.1,0-0.1,0-0.2,0c-0.2,0-0.3-0.2-0.2-0.4l0.1-0.1c0.1-0.1,0-0.2-0.1-0.3c-0.2,0-0.4,0-0.6,0
							s-0.2,0.1-0.1,0.3l0,0c0.2,0.3,0.2,0.4,0,0.5c-0.2,0.1-0.5,0-0.6-0.2c0-0.1,0-0.1-0.1-0.2c-0.1-0.3-0.1-0.3-0.4-0.3
							c-0.2,0-0.4,0-0.5,0c-0.4,0-0.7,0.2-0.8,0.5c-0.2,0.5-0.5,1-0.7,1.5c-0.1,0.3-0.3,0.6-0.4,0.9c0,0.1,0,0.2,0,0.3h0.1
							c0.3-0.2,0.6-0.4,0.8-0.7c0.1-0.1,0.1-0.2,0.2-0.3c0.1-0.1,0.2-0.2,0.3-0.1c0.1,0.1,0.2,0.3,0.1,0.3c-0.4,0.3-0.3,0.7-0.3,1.1
							c0,0.2,0.1,0.4,0.2,0.6c0.5,0.5,1.1,1,1.6,1.5c0.2,0.1,0.3,0.2,0.5,0.2v0.7c-0.3,0-0.7,0-1,0c-0.2,0-0.3-0.1-0.5-0.3
							c-0.3-0.3-0.6-0.7-0.9-1c-0.2-0.2-0.3-0.3-0.5-0.4c-0.1-0.2-0.3-0.3-0.5-0.3c-0.2,0-0.3-0.2-0.3-0.4c0-0.1,0-0.3,0-0.4
							c0-0.3-0.1-0.3-0.3-0.3c-0.1,0-0.1,0-0.2,0c-0.4,0-0.4,0-0.4,0.4c0,0.1-0.1,0.2-0.2,0.3c0,0.1-0.1,0.1-0.2,0.2
							c0.6,0.1,0.9,0.5,1.2,0.9c0.1,0.1,0.2,0.3,0.3,0.4s0.2,0.3,0.3,0.4c0.1,0.2,0.2,0.5,0.1,0.7c0,0,0,0,0,0.1
							c-0.2,0.2-0.5,0.3-0.7,0.1c-0.2-0.2-0.5-0.4-0.6-0.8c0-0.3-0.2-0.5-0.4-0.6c-0.2,0.2-0.2,0.3,0,0.5c0.2,0.2,0.3,0.4,0.2,0.6
							c0,0.1-0.1,0.3-0.1,0.3c-0.1,0.1-0.3,0-0.4-0.1c-0.2-0.2-0.4-0.2-0.7-0.2c-0.8,0-1.6,0-2.5,0c-0.3,0-0.5,0-0.7,0.2
							c-0.1,0.1-0.2,0.1-0.4,0.1c-1.5,0-3.1,0-4.6,0c-0.1,0-0.3-0.1-0.4-0.2c-0.1-0.2-0.3-0.2-0.5-0.2l0,0c-0.5-0.1-0.9,0.1-1.3,0.4
							c-0.5,0.4-1.1,0.6-1.7,1c-0.5,0.3-1,0.5-1.6,0.6c-0.5,0.1-1,0.2-1.4,0.3c-0.5,0.1-0.9,0.2-1.4,0.3c-0.2,0-0.4,0.1-0.6,0.1
							c-1.1,0-2.1,0-3.2,0c-0.3,0-0.7,0-1,0c-0.2,0-0.4,0.1-0.6,0.2c-0.6,0.3-1.1,0.6-1.7,0.8c-0.4,0.2-0.8,0.4-1.2,0.6
							c-0.5,0.3-1,0.5-1.6,0.7c-0.4,0.2-0.8,0.4-1.2,0.5c-0.2,0.1-0.4,0.2-0.5,0.3c-0.5,0.5-1,0.7-1.6,1c-0.9,0.4-1.7,0.9-2.5,1.4
							c-0.4,0.3-0.7,0.5-1.1,0.8c-0.3,0.3-0.9,0.2-1.2-0.1c-0.6-0.7-1.3-1.1-2.1-1.6c-0.7-0.2-1.2-0.4-1.7-0.4
							c-0.7,0-1.5-0.1-2.2-0.1s-1.4,0-2.1,0.1c-0.1,0-0.1,0-0.2,0c-0.3,0-0.4-0.3-0.3-0.5s0.3-0.3,0.5-0.5c0.4-0.3,0.8-0.5,1.1-0.8
							c1.2-0.8,2.3-1.5,3.5-2.3c0.8-0.6,1.6-1.3,2.5-1.9c0.8-0.6,1.6-1.3,2.5-1.9c1.2-0.9,2.3-1.9,3.5-2.9c0.6-0.6,1.3-1.1,2-1.6
							c0.4-0.3,0.7-0.6,1.1-0.9c0.6-0.4,1.2-0.8,1.8-1.2c0.7-0.5,1.4-1,2.2-1.4c0.6-0.4,1.2-0.8,1.9-1.1c0.9-0.4,1.8-1,2.6-1.5
							c0.4-0.3,0.9-0.5,1.4-0.7c0.4-0.2,0.8-0.4,1.2-0.7c0.4-0.3,0.9-0.6,1.3-0.9c0.6-0.4,1.2-0.8,1.9-1.1c0.3-0.2,0.7-0.3,1-0.4
							c0.6-0.2,1.1-0.4,1.7-0.6c0.5-0.2,1.1-0.4,1.6-0.5c0.2-0.1,0.4-0.1,0.6-0.1c0.9,0,1.7-0.1,2.6,0c0.4,0,0.8,0.1,1.2,0.3
							c0.4,0.2,0.9,0.3,1.2,0.6c0.5,0.3,1,0.3,1.6,0.2c1.1-0.2,2.2-0.6,3.3-0.9c0.2-0.1,0.5-0.1,0.8-0.1c0.9,0,1.8,0,2.8,0
							c0.3,0,0.6,0.1,0.8,0.2c0.5,0.2,0.9,0.4,1.4,0.6c0.4,0.2,0.8,0.4,1.2,0.6c0.5,0.3,1,0.5,1.6,0.5c0.2,0,0.4,0.1,0.6,0.1
							c0.5,0.2,1.1,0.2,1.6,0.2s1.1,0.1,1.6,0.2c0.4,0.1,0.9,0.1,1.3,0.2c1.1,0.2,1.9,0.7,2.4,1.7c0.3,0.6,0.7,1.2,1.1,1.8
							c0,0.1,0.1,0.1,0.1,0.1c0.5,0.4,0.8,1,1.1,1.6c0,0.1,0.1,0.2,0.1,0.2c0.3,0.4,0.4,0.8,0.4,1.3c0,0.2,0.1,0.3,0.1,0.5
							c0.1,0.2,0.2,0.4,0.2,0.7c0,0.2,0,0.4-0.1,0.5c-0.4,0.5-0.7,1.1-1.2,1.6c-0.6,0.6-1.3,1.1-2,1.5c-0.3,0.2-0.6,0.4-0.8,0.6
							c-0.3,0.2-0.6,0.4-0.8,0.5c-0.1,0.1-0.3,0.1-0.4,0.1c-0.4,0-0.9,0.1-1.3,0c-0.5,0-1-0.2-1.5-0.3s-0.8-0.3-1.1-0.7
							c-0.5-0.5-1.2-0.7-1.8-0.9c-0.2-0.1-0.4-0.2-0.6-0.2c-0.3-0.1-0.5-0.2-0.8-0.4c-0.2-0.1-0.4-0.3-0.6-0.4
							C170.8,128.2,170.3,127.7,169.9,127.2z"/>
						<path class="st0" d="M127.1,149.8C127.1,149.9,127.1,149.9,127.1,149.8C127.1,149.9,127.1,149.9,127.1,149.8z"/>
						<path class="st0" d="M124.2,148.9L124.2,148.9C124.2,148.9,124.2,148.8,124.2,148.9C124.1,148.8,124.1,148.8,124.2,148.9
							C124.1,148.8,124.1,148.8,124.2,148.9L124.2,148.9c-0.2-0.1-0.2,0-0.2,0l0.1,0.1l0,0C124.1,149,124.1,149,124.2,148.9
							C124.2,149,124.2,148.9,124.2,148.9L124.2,148.9z M125.5,149.7L125.5,149.7h0.2c0,0-0.1-0.1-0.1-0.2
							C125.5,149.6,125.5,149.6,125.5,149.7z M127,149.8c-0.1,0-0.3,0-0.3,0.2c0,0.1,0.1,0.1,0.2,0.2l0,0c0,0,0.1,0,0.1-0.1
							c0.1-0.1,0.1-0.1,0.2-0.2C127.2,149.8,127.2,149.8,127,149.8C127.1,149.9,127.1,149.9,127,149.8L127,149.8z M127.6,150.6
							c0.1,0,0.2-0.1,0.3-0.1v-0.1c-0.1,0-0.2-0.1-0.2-0.1c-0.1,0-0.2,0.1-0.2,0.1l0,0c0,0.1,0,0.1,0,0.1
							C127.5,150.6,127.6,150.6,127.6,150.6z M191.3,143.9c0.1-0.1,0.2-0.3,0.2-0.4c0.1-0.2,0.3-0.3,0.5-0.3s0.4,0.2,0.4,0.4
							c0.1,0.4,0,0.8-0.3,1.2c-0.4,0.4-0.7,0.7-1.1,1.1c-0.1,0.1-0.2,0.2-0.2,0.3c0.1,0.2,0.3,0.2,0.4,0.1c0.5-0.1,0.9-0.2,1.4-0.4
							c0.6-0.2,1.1-0.4,1.7-0.5c0.6-0.1,1.3-0.3,1.8-0.6c0.5-0.3,1-0.5,1.5-0.8c0.3-0.2,0.6-0.4,0.9-0.7c0.4-0.3,0.6-0.7,0.7-1.2
							c0.1-0.4,0.3-0.5,0.7-0.5c0.3,0,0.5,0.3,0.5,0.6c0.1,0.9-0.2,1.5-1,2c-0.6,0.4-1.2,0.8-1.7,1.2c-0.2,0.1-0.4,0.2-0.6,0.3
							c-1.5,0.5-2.9,1-4.4,1.5c-0.7,0.2-1.5,0.4-2.2,0.5c-1.1,0.2-2.3,0.4-3.4,0.8c-0.6,0.2-1.2,0.4-1.9,0.5
							c-0.8,0.2-1.6,0.3-2.4,0.3c-1,0.1-2,0.2-3,0.2c-1.1,0.1-2.2,0.1-3.4,0.2c-1.2,0.1-2.3,0.2-3.5,0.3c-1.1,0.1-2.2,0.2-3.3,0.3
							c-1.4,0.1-2.8,0.2-4.2,0.3c-0.4,0-0.8,0-1.3,0c-1.1,0.1-2.3,0.2-3.4,0.2c-1.4,0.1-2.9,0.2-4.3,0.3c-1,0.1-2,0.1-3.1,0.2
							c-0.5,0-0.9,0.1-1.4,0.1c-1.1,0.1-2.2,0.2-3.3,0.3c-1.1,0.1-2.2,0.3-3.4,0.4c-0.7,0.1-1.4,0.1-2.1,0.1c-0.7,0-1.3,0.1-2,0.1
							c-0.7,0.1-1.5,0.2-2.2,0.3c-1.3,0.1-2.5,0.2-3.8,0.4c-0.9,0.1-1.8,0.2-2.7,0.3c-1.1,0.1-2.3,0.2-3.4,0.4
							c-1.3,0.1-2.5,0.3-3.8,0.4c-1,0.1-2,0.2-3,0.3c-1,0.1-2,0.2-3,0.3s-2,0.3-3,0.4c-1,0.1-2,0.2-2.9,0.3
							c-0.9,0.1-1.8,0.2-2.7,0.3c-0.5,0.1-1,0.1-1.6,0.1c-0.8,0.1-1.5,0.2-2.3,0.3c-0.8,0.1-1.6,0.2-2.4,0.3
							c-1.3,0.1-2.5,0.2-3.8,0.4c-0.6,0.1-1.2,0.1-1.9,0.2c-0.6,0.1-1.3,0.2-1.9,0.2c-1.3,0.1-2.6,0.3-4,0.4
							c-1.3,0.1-2.5,0.3-3.8,0.5c-0.6,0.1-1.1,0.2-1.7,0.3c-0.9,0.1-1.7,0.3-2.6,0.4c-1,0.1-2,0.2-3,0.4c-1.1,0.2-2.2,0.4-3.3,0.6
							c-0.5,0.1-1.1,0.1-1.6,0.2c-1.4,0.2-2.7,0.3-4.1,0.5c-1.2,0.1-2.3,0.3-3.5,0.4c-0.9,0.1-1.9,0.1-2.8,0.2
							c-0.3,0-0.7-0.1-0.9-0.3c-0.3-0.3-0.6-0.7-0.9-1c-0.1-0.2-0.1-0.4,0-0.5c0.1-0.2,0.3-0.3,0.4-0.5c0.1-0.1,0.2-0.3,0.3-0.5
							c0.2-0.2,0.4-0.4,0.7-0.4c0.6,0,1.3-0.1,1.9-0.1c1.1-0.1,2.1-0.2,3.2-0.2c1,0,1.9-0.2,2.9-0.3c1.3-0.1,2.6-0.3,4-0.4
							c0.6-0.1,1.3-0.2,1.9-0.3c1.3-0.2,2.7-0.4,4-0.6c0.3,0,0.6-0.1,0.9-0.2c0.4-0.1,0.8-0.1,1.2-0.1c0.7-0.1,1.4-0.2,2.2-0.3
							c1-0.1,1.9-0.2,2.9-0.3c0.2,0,0.4-0.1,0.6-0.1c0.9-0.1,1.9-0.2,2.8-0.3c0.9-0.1,1.9-0.3,2.8-0.4c0.8-0.1,1.7-0.2,2.5-0.3
							c1.5-0.2,3.1-0.4,4.6-0.6c0.7-0.1,1.4-0.2,2.1-0.3c0.4,0,0.7-0.1,1.1-0.2c1.7-0.2,3.4-0.4,5.1-0.6c0.5-0.1,1-0.2,1.5-0.2
							c0.8-0.1,1.7-0.3,2.5-0.4c0.2,0,0.4-0.1,0.6-0.1s0.3-0.1,0.3-0.3c0-0.3,0.2-0.4,0.5-0.5c0.3,0,0.5-0.2,0.6-0.4
							c-0.1-0.2-0.3-0.2-0.4-0.1c-0.2,0.1-0.4,0.2-0.6,0.3c-0.1,0.1-0.2,0.1-0.4,0c-0.5-0.2-1-0.4-1.4-0.5c-0.4-0.1-0.8-0.2-1.1-0.4
							c-0.3-0.2-0.6-0.5-0.9-0.8c-0.1-0.1-0.1-0.3-0.1-0.5s-0.1-0.5-0.2-0.7c-0.2-0.3-0.2-0.6-0.1-0.9c0.2-0.4,0.5-0.5,0.9-0.5
							c1,0,2.1,0.1,3.1,0.1c0.6,0,1.2,0.3,1.8,0.5c0.5,0.2,1,0.5,1.5,0.7c0.2,0,0.3,0.2,0.4,0.3c0.3,0.2,0.5,0.5,0.9,0.5
							c0.1,0,0.1,0,0.2,0c0.2,0,0.3-0.2,0.1-0.3c-0.2-0.2-0.3-0.3-0.5-0.4s-0.3-0.2-0.5-0.3c-0.1,0-0.2-0.1-0.3-0.1
							c-0.1,0-0.2,0-0.3-0.1c-0.8-0.5-1.8-0.6-2.6-1c-0.1,0-0.2,0-0.3,0c-0.3,0-0.7,0-1,0s-0.6,0-0.9-0.1c-0.3-0.1-0.6-0.1-0.9-0.1
							s-0.5-0.2-0.5-0.5c0-0.1,0-0.1,0-0.2c0.1-0.4,0.2-0.7,0.5-1c0.6-0.6,1.3-1.3,2-1.9c0.4-0.4,1-0.6,1.5-0.8c0.1,0,0.2,0,0.3,0
							c0.9,0,1.9,0,2.8,0c1,0,2,0.1,3,0.3c0.3,0.1,0.6,0.2,0.8,0.4c0.1,0.1,0.2,0.2,0.3,0.3c0.3,0.2,0.4,0.6,0.4,0.9
							c0,0.2-0.1,0.3-0.2,0.5c0,0.1-0.1,0.1-0.2,0.3c0.2,0,0.3,0,0.4,0c0.3,0,0.3,0.1,0.4,0.3c0,0.3,0,0.5-0.3,0.6h-0.1H126
							c-0.5,0.3-1.2,0.4-1.4,1.1c-0.1,0.3-0.4,0.4-0.5,0.7c-0.1,0.1-0.2,0.2-0.2,0.3c0,0.2,0,0.4,0,0.6c0,0.1,0.2,0.2,0.3,0
							c0.1-0.1,0.3-0.3,0.4-0.4c0.3-0.4,0.7-0.7,1.1-1.1c0.1-0.1,0.3-0.3,0.5-0.2c0.2,0,0.3-0.1,0.3-0.3s0-0.4,0.3-0.5
							s0.5,0,0.7,0.2c0.3,0.3,0.6,0.6,1,1c0.1,0.1,0.2,0.2,0.1,0.4c-0.1,0.1-0.2,0.2-0.3,0.2c-0.3,0-0.5,0.1-0.6,0.3
							c-0.2,0.3-0.5,0.5-0.8,0.7c-0.1,0.1-0.1,0.1-0.1,0.2c-0.1,0.2-0.1,0.4,0,0.5c0.1,0.1,0.3,0.1,0.5-0.1c0.1-0.1,0.2-0.2,0.2-0.2
							c0.4-0.5,0.9-0.7,1.5-0.9c0.1,0,0.2-0.1,0.3-0.2c0.2-0.1,0.3-0.1,0.5,0.1c0.1,0.1,0.2,0.2,0.3,0.3c0.2,0.3,0.4,0.3,0.7,0.3
							c0.1,0,0.2,0,0.3,0c0.3,0,0.4,0.3,0.2,0.5c-0.2,0.2-0.4,0.5-0.8,0.5c-0.2,0-0.3,0.1-0.2,0.4v0.1c0.3,0.4,0.7,0.7,1.1,1
							c0.1,0.1,0.2,0.1,0.3,0.1c1.2,0,2.4,0,3.5-0.1c1.3-0.1,2.5-0.1,3.8-0.2c0.9-0.1,1.7-0.1,2.6-0.2c1.3-0.1,2.6-0.3,3.9-0.3
							c0.1,0,0.2,0,0.2,0c1.1-0.2,2.3-0.2,3.5-0.3c0.4,0,0.9-0.1,1.3-0.1c1.2-0.1,2.5-0.2,3.7-0.3c0.9-0.1,1.8-0.1,2.6-0.2
							c0.6,0,1.2-0.1,1.8-0.1s1.1-0.1,1.7-0.1h0.1c1.6-0.1,3.2-0.1,4.9-0.2c1.1-0.1,2.2-0.2,3.4-0.3c0.9-0.1,1.7-0.1,2.6-0.2
							c0.4,0,0.8-0.1,1.2-0.1c1.1-0.1,2.1-0.2,3.2-0.2c1-0.1,1.9-0.1,2.9-0.2c0.9-0.1,1.9-0.2,2.8-0.3c0.3,0,0.5,0,0.8-0.1
							c0.8,0,1.5-0.1,2.3-0.1c0.7,0,1.4-0.1,2-0.2c0.6-0.1,1.2-0.2,1.7-0.3c0.1,0,0.2-0.1,0.3-0.2c0.6-0.4,1.2-0.8,1.8-1.3
							C190.7,144.5,191,144.2,191.3,143.9z"/>
						<path class="st0" d="M124.1,148.8C124.2,148.8,124.2,148.9,124.1,148.8C124.2,148.9,124.2,148.8,124.1,148.8z"/>
						<path class="st0" d="M124.1,148.8L124.1,148.8L124.1,148.8z"/>
						<path class="st0" d="M124.1,148.8L124.1,148.8L124.1,148.8z"/>
					</g>
				</g>
			</g>
		</g>
	</g>
	<g>
		<path d="M228.4,140.2h-11.5l-0.8,1.9c-1.2,2.8-1.7,4.6-1.7,5.5c0,0.9,0.3,1.6,0.9,2.1c0.6,0.5,1.4,0.7,2.4,0.7v1h-9v-1
			c1.3-0.2,2.3-0.7,3-1.4c0.7-0.7,1.4-2.3,2.4-4.7c0.1-0.2,0.4-1.1,1.1-2.6l8.8-21.1h0.9l10,24.1l1.4,3.2c0.3,0.7,0.7,1.3,1.3,1.7
			c0.5,0.4,1.3,0.7,2.4,0.8v1h-12v-1c1.5,0,2.5-0.1,3-0.3c0.5-0.2,0.8-0.6,0.8-1.3c0-0.3-0.3-1.3-1-2.9L228.4,140.2z M228,139.2
			l-5.4-12.9l-5.4,12.9H228z"/>
		<path d="M247.7,140.4h11v3.4h-11V140.4z"/>
		<path d="M269.4,121h14.1v1h-0.8c-1.5,0-2.5,0.1-2.9,0.4c-0.5,0.2-0.8,0.7-0.9,1.4c-0.1,0.7-0.2,2.3-0.2,4.8v19.8
			c0,2.6-0.1,4.5-0.3,5.9c-0.2,1.3-0.8,2.7-1.7,3.9s-2.2,2.3-3.7,2.9c-1.5,0.7-3.3,1-5.4,1c-2.3,0-4.1-0.4-5.3-1.3
			c-1.2-0.8-1.9-1.8-1.9-3c0-0.7,0.2-1.3,0.7-1.8c0.4-0.5,1-0.7,1.6-0.7c0.7,0,1.2,0.2,1.6,0.6c0.4,0.4,0.7,1,0.7,1.6
			c0,0.4-0.1,0.8-0.3,1.2c-0.2,0.4-0.2,0.6-0.2,0.8c0,0.5,0.3,0.9,0.9,1.1c0.6,0.3,1.3,0.4,2.1,0.4c1.7,0,3.1-0.5,4.3-1.6
			c1.2-1.1,1.9-2.4,2.1-3.8c0.2-1.5,0.4-3.9,0.4-7.3v-19.7c0-2.4-0.1-4-0.2-4.7c-0.1-0.7-0.4-1.2-0.9-1.5c-0.5-0.3-1.5-0.4-3-0.4
			h-0.7v-1H269.4z"/>
		<path d="M308.3,133v12c0,2,0,3.3,0.1,3.8s0.3,0.9,0.7,1.1c0.4,0.3,1.1,0.4,2,0.4v1c-2.3,0-3.9,0.3-5,0.7h-0.3
			c-0.5-0.8-0.7-2.2-0.8-4.3c-0.9,1.4-2,2.5-3.1,3.2c-1.2,0.7-2.5,1.1-3.9,1.1c-1.2,0-2.3-0.3-3.2-0.8c-0.9-0.6-1.6-1.2-1.9-2
			c-0.4-0.8-0.5-2-0.5-3.6v-6.2c0-2.1,0-3.4-0.1-3.9c-0.1-0.5-0.3-0.8-0.7-1s-1.1-0.3-2.2-0.3v-1h6.2v12.7c0,1.3,0.1,2.2,0.2,2.7
			c0.1,0.5,0.5,1.1,1.1,1.5c0.6,0.4,1.3,0.6,2.1,0.6c1.1,0,2.2-0.4,3.3-1.1c1-0.8,1.8-1.6,2.1-2.4c0.4-0.8,0.6-2,0.6-3.6v-4.1
			c0-2,0-3.2-0.1-3.6c0-0.4-0.2-0.8-0.6-1.1c-0.3-0.3-1-0.5-2.1-0.5h-0.5v-1h6.6V133z"/>
		<path d="M325.1,132.3h0.2c0.4,1,0.6,2.3,0.6,3.9c1-1.3,2.1-2.2,3.2-2.9c1.2-0.6,2.4-1,3.7-1c1.5,0,2.7,0.3,3.7,1
			c0.9,0.7,1.6,1.7,2,3.1c1.1-1.4,2.3-2.4,3.5-3.1c1.2-0.7,2.4-1,3.7-1c1.4,0,2.6,0.3,3.6,1c1,0.7,1.6,1.4,1.8,2.2
			c0.2,0.8,0.3,2.2,0.3,4.1v5.5c0,2.1,0,3.4,0.1,3.9s0.3,0.8,0.7,1c0.4,0.2,1.1,0.3,2.2,0.3v1h-9.2v-1c1,0,1.7-0.1,2-0.3
			c0.4-0.2,0.6-0.5,0.7-1c0.1-0.4,0.1-1.8,0.1-4v-6.1c0-1.2-0.1-2.2-0.2-2.8c-0.1-0.6-0.5-1.2-1.1-1.6s-1.4-0.7-2.3-0.7
			c-1,0-1.9,0.3-2.9,1s-2,1.6-2.9,3v7.2c0,2,0,3.2,0.1,3.7s0.3,0.9,0.6,1.2c0.4,0.3,1,0.4,2,0.4v1h-8.9v-1c1,0,1.7-0.1,2.1-0.3
			c0.4-0.2,0.6-0.5,0.7-1c0.1-0.4,0.1-1.8,0.1-4v-5.1c0-1.6-0.1-2.8-0.2-3.5c-0.1-0.7-0.5-1.3-1.2-1.9c-0.6-0.5-1.4-0.8-2.4-0.8
			c-0.9,0-1.9,0.3-2.8,0.9c-1,0.6-1.9,1.5-2.9,2.7v7.6c0,2,0,3.3,0.1,3.8s0.3,0.9,0.7,1.1c0.4,0.3,1.1,0.4,2.1,0.4v1h-9v-1
			c1,0,1.7-0.1,2.1-0.3c0.4-0.2,0.6-0.5,0.7-1c0.1-0.4,0.1-1.8,0.1-4v-5.5c0-2.1,0-3.4-0.1-3.8s-0.3-0.8-0.7-1.1
			c-0.4-0.3-1.1-0.4-2.1-0.4v-1C322,133.1,323.7,132.8,325.1,132.3z"/>
		<path d="M366.6,132.3h0.6c0.3,0.8,0.4,1.8,0.4,3c1-1,2-1.8,3.1-2.3s2.3-0.8,3.5-0.8c2.5,0,4.7,0.9,6.3,2.7
			c1.7,1.8,2.5,4.1,2.5,7.1c0,2.9-0.8,5.3-2.5,7.2s-3.9,2.9-6.7,2.9c-1.1,0-2.2-0.2-3.3-0.7c-1-0.5-2-1.1-2.9-2v7
			c0,2.1,0,3.4,0.1,3.9s0.3,0.8,0.7,1c0.4,0.2,1.1,0.3,2.2,0.3v1H361v-1h0.7c1.1,0,1.8-0.2,2.1-0.5c0.3-0.3,0.5-0.7,0.6-1.1
			c0.1-0.4,0.1-1.7,0.1-3.7v-16.6c0-2,0-3.2-0.1-3.7s-0.3-0.9-0.6-1.2c-0.3-0.3-1-0.4-2-0.4H361v-1
			C362.5,133.3,364.4,132.9,366.6,132.3z M367.6,147.9c0.8,1,1.7,1.7,2.6,2.2s1.9,0.8,2.9,0.8c1.7,0,3.2-0.7,4.4-2.2
			c1.3-1.4,1.9-3.8,1.9-6.9c0-2.7-0.6-4.8-1.8-6.2c-1.2-1.4-2.6-2-4.3-2c-1,0-2,0.3-2.9,0.8s-1.8,1.3-2.6,2.4v11.1H367.6z"/>
		<path d="M412.3,135c3.4,0.3,6,1.1,7.7,2.6s2.5,3.3,2.5,5.5c0,1.9-0.6,3.6-1.7,4.9c-1.1,1.4-2.6,2.3-4.4,2.7s-4.1,0.6-7.1,0.6
			h-11.9v-1h1.2c1.3,0,2.2-0.2,2.7-0.5c0.5-0.3,0.8-0.8,1-1.5c0.1-0.7,0.2-2.3,0.2-4.8v-14.8c0-2.5-0.1-4.1-0.2-4.8
			c-0.1-0.7-0.4-1.2-0.9-1.5c-0.5-0.3-1.5-0.4-3-0.4h-0.6v-1l5-0.1l5.7-0.2c8.3,0,12.5,2.4,12.5,7.2c0,2-0.7,3.6-2.1,4.7
			C417.3,133.8,415.2,134.6,412.3,135z M406.8,134.6c0.4,0,0.7,0,0.9,0c3.2,0,5.4-0.5,6.6-1.5s1.8-2.7,1.8-4.9
			c0-1.6-0.2-2.8-0.7-3.7c-0.5-0.9-1.2-1.5-2.1-2s-2.5-0.7-4.7-0.7c-0.6,0-1.2,0-1.8,0.1L406.8,134.6L406.8,134.6z M406.8,135.7v6.8
			c0,2.9,0.1,4.7,0.2,5.5c0.1,0.8,0.4,1.4,0.8,1.8c0.5,0.4,1.4,0.6,2.7,0.6c2.4,0,4.2-0.6,5.4-1.8s1.8-3.1,1.8-5.5
			c0-2.5-0.7-4.4-2-5.5c-1.4-1.2-3.7-1.8-7.1-1.8C408,135.7,407.4,135.7,406.8,135.7z"/>
		<path d="M428.1,142.2c0-2.8,0.9-5.2,2.8-7c1.9-1.9,4.2-2.8,6.9-2.8c2.8,0,5.1,0.9,7,2.8c1.9,1.9,2.8,4.2,2.8,7
			c0,3.1-1,5.5-2.9,7.3c-1.9,1.8-4.2,2.7-6.9,2.7s-5-0.9-6.9-2.7C429,147.6,428.1,145.2,428.1,142.2z M431.8,142.3
			c0,3.3,0.5,5.5,1.6,6.8s2.5,2,4.5,2s3.5-0.7,4.5-2s1.6-3.6,1.6-6.8c0-3.2-0.5-5.5-1.5-6.9c-1-1.4-2.5-2.1-4.5-2.1s-3.5,0.7-4.5,2
			C432.3,136.8,431.8,139.1,431.8,142.3z"/>
		<path d="M452.8,142.2c0-2.8,0.9-5.2,2.8-7c1.9-1.9,4.2-2.8,6.9-2.8c2.8,0,5.1,0.9,7,2.8c1.9,1.9,2.8,4.2,2.8,7
			c0,3.1-1,5.5-2.9,7.3c-1.9,1.8-4.2,2.7-6.9,2.7s-5-0.9-6.9-2.7C453.8,147.6,452.8,145.2,452.8,142.2z M456.5,142.3
			c0,3.3,0.5,5.5,1.6,6.8s2.5,2,4.5,2s3.5-0.7,4.5-2s1.6-3.6,1.6-6.8c0-3.2-0.5-5.5-1.5-6.9c-1-1.4-2.5-2.1-4.5-2.1s-3.5,0.7-4.5,2
			C457.1,136.8,456.5,139.1,456.5,142.3z"/>
		<path d="M488,133h7.4v1c-1.4,0-3.2,1-5.5,3c-0.7,0.6-1.9,1.5-3.4,2.8l6.5,7.7c1,1.1,1.8,1.9,2.3,2.3c0.6,0.4,1.1,0.5,1.7,0.6v1h-9
			v-1c1.5,0,2.3-0.4,2.3-1c0-0.3-0.5-1-1.5-2.2l-4.7-5.5l-1,0.7v2.6c0,2,0,3.2,0.1,3.7s0.3,0.9,0.6,1.2c0.4,0.3,1,0.4,1.9,0.4v1
			h-9.3v-1h0.7c1.1,0,1.8-0.2,2.1-0.5c0.3-0.3,0.5-0.7,0.5-1.1s0.1-1.7,0.1-3.7v-18.3c0-1.8-0.2-2.9-0.5-3.4s-1.1-0.7-2.4-0.7v-1
			c0.9,0,1.9-0.1,3.2-0.3s2.1-0.4,2.5-0.6h0.5v20.6l1.9-1.3c3.1-2.2,4.7-3.8,4.7-4.8c0-0.7-0.6-1-1.7-1L488,133L488,133z"/>
		<path d="M500.6,152v-6h0.9c1,3.5,2.8,5.2,5.4,5.2c1.1,0,2-0.3,2.5-1s0.8-1.4,0.8-2.3c0-1-0.3-1.7-0.9-2.4
			c-0.6-0.6-1.8-1.4-3.6-2.2c-1.9-0.9-3.2-1.8-4-2.7c-0.8-0.9-1.2-1.9-1.2-3.2c0-1.2,0.4-2.4,1.3-3.5s2.1-1.6,3.7-1.6s2.9,0.6,4,1.9
			c0.2-0.2,0.5-0.8,0.9-1.6h0.8v5.7h-0.8c-0.3-1.4-0.9-2.5-1.7-3.5c-0.9-1-1.9-1.5-3-1.5c-0.9,0-1.6,0.3-2.2,0.8
			c-0.6,0.6-0.8,1.2-0.8,1.9c0,0.8,0.3,1.5,0.9,2.1c0.6,0.6,1.7,1.3,3.4,2c2.5,1.1,4.1,2.3,4.7,3.4c0.6,1.1,0.9,2.2,0.9,3.2
			c0,1.6-0.5,2.9-1.6,3.9c-1.1,1-2.4,1.5-4,1.5c-1.7,0-3.2-0.7-4.5-2.1c-0.4,0.4-0.7,1.1-1,1.9h-0.9V152z"/>
	</g>
</g>
</svg>
